<?xml version="1.0" encoding="UTF-8"?>
<svg version="1.1" viewBox="0 0 2048 2048" width="1280" height="1280" xmlns="http://www.w3.org/2000/svg">
<path transform="translate(0)" d="m0 0h2048v2048h-2048z" fill="#131313"/>
<path transform="translate(1335,819)" d="m0 0 12 4 10 6 10 9 7 8 5 12v8l-2 8-9 25-12 29-28 70-10 27-10 28-6 21-3 16 10-5 10-9 12-14 18-22 12-17 10-15 5-9 10-21 9-23 3-10 2-19 3-6 7 1 15 8 11 9 4 5 8 16v7l-4 15-10 25-11 26-10 26-6 18-3 13 8-2 6-5 10-14 22-33 11-18 10-17 12-23 10-18 15-32 4-5 7-1 9 6 5 4 9 12 6 12 3 13-4 13-10 26-13 32-15 35-13 28-11 22-14 24-10 15-10 13-11 12h-2l-2 4-14 11-11 7-16 8-17 6-19 4h-16l-6-4-2-4 8-5 17-9 12-9 10-9 7-7 11-14 7-10 10-15 15-29 6-10 8-18 9-23-8 9-8 11-14 16-10 7-11 4h-9l-9-3-18-13-7-8-5-11-3-7-4 4-5 6h-2l-2 4-12 12-16 10-11 5-12 1-11-4-17-12-7-7-9-15-5 5-10 12-8 7-11 8-11 4-4 1h-17l-17-5-11-7-7-7-12-21-7-14-3 1-10 21-12 31-5 5-5-1-10-6-10-9-7-8-5-10-1-5v-10l3-15 5-18 1-6h-20l-9-1-4 9-8 19-9 16-10 13-11 12-10 8-10 6-8 2h-13l-12-4-14-8-16-13-8-9-6-10-3-13 1-26-17-2h-5l-10 24-10 19-12 16-17 17-11 7-8 2h-16l-13-5-15-10-10-8-10-10-6-9-4-15v-14l4-22 8-24 8-16 9-14 9-12 10-12 14-11 15-8 6-2h10l11 3 16 8 10 8 8 8 6 8 1 2v7l-4 4-11-3-10 1-6 3-11 8-12 13-10 15-12 23-7 21-4 19v14l4 10 4 2 7-1 11-6 10-9 6-8 7-11 10-24 2-6v-13l-4-9-5-10v-11l3-5 6-5h13l8 5 3 6 3 17 1 2 11 1 11-2 6-10 8-16 9-14 8-11 14-15 10-8 13-8 8-3h13l11 4 14 7 9 7 5 4 6 8 4 5 2 5-1 4-2 1-21 1-8 4-17 14-9 11-11 16-11 23-5 17-3 20v14l4 8 2 1 9-1 14-8 8-7 9-12 8-15 8-20 1-4v-9l-7-14-5-8-1-9 3-5 7-6h14l5 3 4 6 4 17 2 4 5 2 11-2 17-6 6-9 15-36 11-28 13-32 13-33 5-14v-14l2-7 3-3 8 1 12 6 13 10 7 9 5 12-1 13-18 51-10 24-3 7-1 7 10-12 9-12 9-10 9-6h12l9 4 8 6 7 7 8 13 2 5v15l-5 16-8 15-8 10-7 7-14 9-20 10 1 8 7 24 6 11 4 5 7 1 8-5 11-12 13-17 10-14 7-10 10-15 10-18 10-24 32-80 13-34 4-11 1-6 1-17z" fill="#FEFEFE"/>
<path transform="translate(874,1022)" d="m0 0 14 1 8 2v26l3 13 7 11 9 10 16 12 16 8 7 2h13l10-3 12-8 10-9 12-14 8-13 8-15 8-21 2-2 9 1 20 1-1 10-5 17-2 12v10l3 9 6 10 10 10 11 7 4 2 4-1 3-3 15-38 8-15h4l8 16 11 19 7 7 10 6 12 4-1 2 2 1-1 5 4 9 6 16 3 10 3 14v12l-2 15-4 15-11 23-8 12-13 15-7 7-11 9-12 9-13 8-22 10-27 9-21 5-26 3h-38l-26-4-25-6-24-8-25-12-11-5 1 3v16l-3 10-7 6-2 1h-17l-13-5-15-8-11-9-10-10-8-11-9-17-4-13-1-5v-20l4-17 7-20 8-20 5-11 8-21 3-11v-6l-1-2-7-1v-1l14-1 10-3 11-8 16-16 11-16 12-23 6-17z" fill="#4E4E4E"/>
<path transform="translate(945,732)" d="m0 0h16l12 3 16 8 10 7 10 9 10 11 9 14 6 16 1 6v25l-4 22-6 18-2 2-1 8-2 2v7l5-5 13-19 10-14 14-18 14-15 7-8 9-10 13-15 11-12 11-11 11-9 14-10 15-7 11-3h15l17 5 15 8 11 8 10 9 11 11 10 14 9 16 6 18 2 17-1 18-5 25-7 25-11 28-5 11-4 7-4 4h-2l-1 7-2 3h-2l-2 6-1-4v-15l-6-12-7-9-9-8-8-4-3-1h-12l-9 6-10 11-12 16-6 7-1-2 2-8 13-32 17-48 1-13-5-12-7-9-15-11-12-5h-7l-2 12v11l-11 30-12 29-24 60-11 26-6 8-21 7-7 1-6-3-3-8-3-13-3-4v-2l-5-2h-14l-5 5h-2l-2 5 1 9 8 13 4 9v9l-6 16-4 9-8 16-12 14-10 7-12 6h-6l-5-5-2-5v-14l3-20 6-20 11-22 11-15 9-11 13-11 9-6 3-1 21-1 2-1-1-5-4-7-6-7-5-5-9-7-16-8-9-3h-13l-10 4-15 10-13 12-10 12-10 15-9 16-7 14-5 3-13 1-7-2-3-13-2-9-5-5-4-2h-13l-7 6-1 3v11l5 10 4 9v13l-8 20-5 11-10 16-10 10-10 6-7 3-7-1-4-6-2-6v-14l5-23 6-17 10-20 8-12 7-9 12-13 12-8 8-2 10 1 6 2 3-3v-7l-4-6-1-2 4-1 1-6 11-23 14-35 16-39 10-27 6-18 2-10v-18l-4-11-1-5v-7l3-6 6-5z" fill="#4F4F4F"/>
<path transform="translate(583,819)" d="m0 0h8l14 5 11 7 8 8 6 13 1 7-1 15-5 19 6-5 8-11 10-13 8-10 5-6h2l1-3h2v-2l8-7 7-6 13-8 4-1h12l10 3 11 7 8 8 7 11 5 11 2 9-1 17-3 16-6 16-7 13-9 13-9 10-4 5-11 9-8 6-12 6-10 4-3 1 4 5 14 10 9 8 6 10 4 12-1 13-5 15-7 13-11 12-7 6-9 6-17 7-15 4-20 2h-10l-19-2-17-4-9-4-15-6-1 13-3 4h-8l-10-3-9-7-10-10-4-6-4-11v-13l6-20 12-30 12-28 8-19 11-26 12-28 10-25 11-29 2-9-1-10-1-13z" fill="#fff"/>
<path transform="translate(987,1100)" d="m0 0h5l11 6 9 6 14 13 11 17 6 17 1 4v12l-3 14-9 17-9 10-7 8-8 7-14 9-19 9-19 5-7 1h-29l-18-4-19-7-6-3-1-4 5-13 16-33 11-23 12-25 12-24 6-11 2-3h7l7 2h13l10-3 3-2z" fill="#131313"/>
<path transform="translate(1188,769)" d="m0 0h3l1 2v15l-3 18-5 18-2 12-2 1-6-2 5 6-4-2-15-11-12-5h-7l-2 12v11l-11 30-12 29-24 60-11 26-6 8-21 7-7 1-6-3-3-8-3-13-3-4v-2l-5-2h-14l-5 5h-2l-2 5 1 9 8 13 4 9v9l-6 16-4 9-8 16-12 14-10 7-12 6h-6l-5-5-2-5v-14l3-20 6-20 11-22 11-15 9-11 13-11 9-6 3-1 21-1 2-1-1-5-4-7-5-6v-2h2l1-4 4-5 6-12 7-10 12-17 10-14 10-12 10-13 22-26 7-8 8-7 10-9 13-12 17-13 8-5z" fill="#141414"/>
<path transform="translate(857,960)" d="m0 0h5l5 3-1 2h-3l1 2 4 2h6v4l-3 2-5-1-2-1h-13l-7 6-1 3v11l5 10 4 9v13l-8 20-5 11-10 16-10 10-10 6-7 3-7-1-4-6-2-6v-14l5-23 6-17 10-20 8-12 7-9 12-13 12-8z" fill="#151515"/>
<path transform="translate(591,993)" d="m0 0 7 1 14 7 14 12 7 12 3 12-1 6-4 9-6 9-9 7-10 6-17 5-10 1-14-2-9-4-3-4 1-7 8-16 12-26 10-19 3-5z" fill="#151515"/>
<path transform="translate(702,839)" d="m0 0h6l2 2v7l-4 14-6 14-10 19-6 10-7 11-8 11-11 13-4 2-2 4-13 11-16 10-13 6-10 2 3-9 9-15 12-21 10-16 6-10 10-14 14-18 14-15 8-8 11-8z" fill="#151515"/>
<path transform="translate(1e3 968)" d="m0 0 2 2 2-2 2 4 2 1-5 5h-2l-2 5 1 9 8 13 4 9v9l-6 16-4 9-8 16-12 14-10 7-12 6h-6l-5-5-2-5v-14l3-20 6-20 11-22 11-15 9-11z" fill="#4F4F4F"/>
<path transform="translate(1197,944)" d="m0 0h2l1 8-3 14-5 15-7 11-11 12-13 9-10 6-9 1 2-6 11-18 13-20 7-10 12-16 4-4z" fill="#4F4F4F"/>
<path transform="translate(999,980)" d="m0 0 2 1-1 8-2 7 9-1 6 10 1 3v7l2 1h-3l1 2v7l-3 5h-2v2l-8 3-8 9h-2v2l-4 3-5-1-5-2v-9l7-16 9-21 3-12-1-2z" fill="#131313"/>
<path transform="translate(848 1e3)" d="m0 0 2 2 2 6v13l-8 20-5 11-10 16-10 10-2-1 4-7 4-6 2-9 3-5 1-7 6-13 3-10 3-6 1-7 3-4z" fill="#4F4F4F"/>
<path transform="translate(1123,1053)" d="m0 0 3 1 1 6-2 7-3 1-5-1-1 2 1-6 5-9z" fill="#1B1B1B"/>
<path transform="translate(1443,1083)" d="m0 0h4l-2 6-6 14h-3l-1-4 2-4 1-8h2l1-3z" fill="#4E4E4E"/>
<path transform="translate(1455,1061)" d="m0 0 1 2-6 14-8 1 4-7z" fill="#4F4F4F"/>
<path transform="translate(702,839)" d="m0 0h6l2 2v7l-1 5h-1v-5h-2v-3l-7-1v-4z" fill="#4C4C4C"/>
<path transform="translate(546,1092)" d="m0 0 10 4 1 4h-7l-3-1-1 7h-1v-13z" fill="#4C4C4C"/>
<path transform="translate(1352,1066)" d="m0 0 3 3 2 7h-8l-5 1 6-8z" fill="#4F4F4F"/>
<path transform="translate(628,878)" d="m0 0h1l1 9v3l-4 4-2-1z" fill="#4F4F4F"/>
<path transform="translate(723,950)" d="m0 0 1 3-6 7-7 6-3-1 9-8z" fill="#4F4F4F"/>
<path transform="translate(684,980)" d="m0 0h3v2h-2l-2 4-7-2 2-2z" fill="#4F4F4F"/>
<path transform="translate(579,829)" d="m0 0h1l2 11-1 10h-1l-1-8z" fill="#4F4F4F"/>
<path transform="translate(998,1042)" d="m0 0h2l-2 4-2 3h-6l3-4h2v-2z" fill="#fff"/>
<path transform="translate(1017,965)" d="m0 0 12 1v3l-13-1z" fill="#4F4F4F"/>
<path transform="translate(1244,1070)" d="m0 0 3 2v2l-5 2-5 4 2-4z" fill="#3C3C3C"/>
</svg>
